<mxfile host="app.diagrams.net" modified="2022-10-14T07:53:11.474Z" agent="5.0 (Macintosh; Intel Mac OS X 10_15_7) AppleWebKit/537.36 (KHTML, like Gecko) Chrome/104.0.0.0 Safari/537.36" etag="mhgrNfcU2kYsHgZ7fqV8" version="20.4.0" type="github">
  <diagram id="mYVRujsw0kvANxDBXX0q" name="Page-1">
    <mxGraphModel dx="1426" dy="1893" grid="0" gridSize="10" guides="1" tooltips="1" connect="1" arrows="1" fold="1" page="1" pageScale="1" pageWidth="850" pageHeight="1100" math="0" shadow="0">
      <root>
        <mxCell id="0" />
        <mxCell id="1" parent="0" />
        <mxCell id="mYt-dQ_EKpgAcm44ap4p-28" value="" style="verticalLabelPosition=bottom;verticalAlign=top;html=1;shape=mxgraph.basic.rect;fillColor2=none;strokeWidth=1;size=20;indent=5;fillColor=none;dashed=1;strokeColor=#3333FF;" vertex="1" parent="1">
          <mxGeometry x="292.5" y="382.5" width="221" height="205" as="geometry" />
        </mxCell>
        <mxCell id="mYt-dQ_EKpgAcm44ap4p-18" style="edgeStyle=orthogonalEdgeStyle;rounded=0;orthogonalLoop=1;jettySize=auto;html=1;" edge="1" parent="1" source="7y-xZiBahoW6S9qinBv4-1" target="7y-xZiBahoW6S9qinBv4-3">
          <mxGeometry relative="1" as="geometry" />
        </mxCell>
        <mxCell id="7y-xZiBahoW6S9qinBv4-1" value="使用admin登录SQLE" style="rounded=0;whiteSpace=wrap;html=1;" parent="1" vertex="1">
          <mxGeometry x="273" y="-385" width="140" height="40" as="geometry" />
        </mxCell>
        <mxCell id="mYt-dQ_EKpgAcm44ap4p-19" style="edgeStyle=orthogonalEdgeStyle;rounded=0;orthogonalLoop=1;jettySize=auto;html=1;" edge="1" parent="1" source="7y-xZiBahoW6S9qinBv4-3" target="7y-xZiBahoW6S9qinBv4-5">
          <mxGeometry relative="1" as="geometry" />
        </mxCell>
        <mxCell id="7y-xZiBahoW6S9qinBv4-3" value="创建管理用户mgr1" style="rounded=0;whiteSpace=wrap;html=1;" parent="1" vertex="1">
          <mxGeometry x="273" y="-311" width="140" height="40" as="geometry" />
        </mxCell>
        <mxCell id="mYt-dQ_EKpgAcm44ap4p-20" style="edgeStyle=orthogonalEdgeStyle;rounded=0;orthogonalLoop=1;jettySize=auto;html=1;entryX=0.5;entryY=0;entryDx=0;entryDy=0;" edge="1" parent="1" source="7y-xZiBahoW6S9qinBv4-5" target="7y-xZiBahoW6S9qinBv4-7">
          <mxGeometry relative="1" as="geometry" />
        </mxCell>
        <mxCell id="7y-xZiBahoW6S9qinBv4-5" value="创建普通用户user1、user2、user3、user4" style="rounded=0;whiteSpace=wrap;html=1;" parent="1" vertex="1">
          <mxGeometry x="273" y="-237" width="140" height="40" as="geometry" />
        </mxCell>
        <mxCell id="mYt-dQ_EKpgAcm44ap4p-21" style="edgeStyle=orthogonalEdgeStyle;rounded=0;orthogonalLoop=1;jettySize=auto;html=1;entryX=0.5;entryY=0;entryDx=0;entryDy=0;" edge="1" parent="1" source="7y-xZiBahoW6S9qinBv4-7" target="7y-xZiBahoW6S9qinBv4-15">
          <mxGeometry relative="1" as="geometry" />
        </mxCell>
        <mxCell id="7y-xZiBahoW6S9qinBv4-7" value="创建用户组group1" style="rounded=0;whiteSpace=wrap;html=1;" parent="1" vertex="1">
          <mxGeometry x="273" y="-163" width="140" height="40" as="geometry" />
        </mxCell>
        <mxCell id="7y-xZiBahoW6S9qinBv4-15" value="添加user3、user4到group1" style="rounded=0;whiteSpace=wrap;html=1;" parent="1" vertex="1">
          <mxGeometry x="273" y="-89" width="140" height="47" as="geometry" />
        </mxCell>
        <mxCell id="7y-xZiBahoW6S9qinBv4-19" style="edgeStyle=orthogonalEdgeStyle;rounded=0;orthogonalLoop=1;jettySize=auto;html=1;entryX=0.5;entryY=0;entryDx=0;entryDy=0;" parent="1" source="7y-xZiBahoW6S9qinBv4-17" target="7y-xZiBahoW6S9qinBv4-18" edge="1">
          <mxGeometry relative="1" as="geometry" />
        </mxCell>
        <mxCell id="7y-xZiBahoW6S9qinBv4-17" value="使用mgr1(或admin)&lt;br&gt;登录SQLE" style="rounded=0;whiteSpace=wrap;html=1;" parent="1" vertex="1">
          <mxGeometry x="333" y="48" width="140" height="40" as="geometry" />
        </mxCell>
        <mxCell id="mYt-dQ_EKpgAcm44ap4p-22" style="edgeStyle=orthogonalEdgeStyle;rounded=0;orthogonalLoop=1;jettySize=auto;html=1;entryX=0.5;entryY=0;entryDx=0;entryDy=0;" edge="1" parent="1" source="7y-xZiBahoW6S9qinBv4-18" target="7y-xZiBahoW6S9qinBv4-20">
          <mxGeometry relative="1" as="geometry" />
        </mxCell>
        <mxCell id="7y-xZiBahoW6S9qinBv4-18" value="创建项目proj1" style="rounded=0;whiteSpace=wrap;html=1;" parent="1" vertex="1">
          <mxGeometry x="333" y="119" width="140" height="40" as="geometry" />
        </mxCell>
        <mxCell id="mYt-dQ_EKpgAcm44ap4p-23" style="edgeStyle=orthogonalEdgeStyle;rounded=0;orthogonalLoop=1;jettySize=auto;html=1;entryX=0.5;entryY=0;entryDx=0;entryDy=0;" edge="1" parent="1" source="7y-xZiBahoW6S9qinBv4-20" target="7y-xZiBahoW6S9qinBv4-22">
          <mxGeometry relative="1" as="geometry" />
        </mxCell>
        <mxCell id="7y-xZiBahoW6S9qinBv4-20" value="添加项目数据源" style="rounded=0;whiteSpace=wrap;html=1;" parent="1" vertex="1">
          <mxGeometry x="333" y="188" width="140" height="40" as="geometry" />
        </mxCell>
        <mxCell id="mYt-dQ_EKpgAcm44ap4p-24" style="edgeStyle=orthogonalEdgeStyle;rounded=0;orthogonalLoop=1;jettySize=auto;html=1;entryX=0.5;entryY=0;entryDx=0;entryDy=0;" edge="1" parent="1" source="7y-xZiBahoW6S9qinBv4-22" target="7y-xZiBahoW6S9qinBv4-25">
          <mxGeometry relative="1" as="geometry" />
        </mxCell>
        <mxCell id="7y-xZiBahoW6S9qinBv4-22" value="添加项目流程模板并绑定项目数据源" style="rounded=0;whiteSpace=wrap;html=1;" parent="1" vertex="1">
          <mxGeometry x="333" y="258" width="140" height="40" as="geometry" />
        </mxCell>
        <mxCell id="mYt-dQ_EKpgAcm44ap4p-25" style="edgeStyle=orthogonalEdgeStyle;rounded=0;orthogonalLoop=1;jettySize=auto;html=1;exitX=0.5;exitY=1;exitDx=0;exitDy=0;entryX=0.5;entryY=0;entryDx=0;entryDy=0;" edge="1" parent="1" source="7y-xZiBahoW6S9qinBv4-25" target="7y-xZiBahoW6S9qinBv4-32">
          <mxGeometry relative="1" as="geometry" />
        </mxCell>
        <mxCell id="7y-xZiBahoW6S9qinBv4-25" value="添加项目规则模板并绑定项目数据源" style="rounded=0;whiteSpace=wrap;html=1;" parent="1" vertex="1">
          <mxGeometry x="333" y="328" width="140" height="40" as="geometry" />
        </mxCell>
        <mxCell id="7y-xZiBahoW6S9qinBv4-30" value="编辑项目白名单" style="rounded=0;whiteSpace=wrap;html=1;" parent="1" vertex="1">
          <mxGeometry x="333" y="610" width="140" height="40" as="geometry" />
        </mxCell>
        <mxCell id="mYt-dQ_EKpgAcm44ap4p-26" style="edgeStyle=orthogonalEdgeStyle;rounded=0;orthogonalLoop=1;jettySize=auto;html=1;" edge="1" parent="1" source="7y-xZiBahoW6S9qinBv4-32" target="7y-xZiBahoW6S9qinBv4-34">
          <mxGeometry relative="1" as="geometry" />
        </mxCell>
        <mxCell id="7y-xZiBahoW6S9qinBv4-32" value="添加user1，角色为DEV" style="rounded=0;whiteSpace=wrap;html=1;" parent="1" vertex="1">
          <mxGeometry x="333" y="397" width="140" height="40" as="geometry" />
        </mxCell>
        <mxCell id="mYt-dQ_EKpgAcm44ap4p-27" style="edgeStyle=orthogonalEdgeStyle;rounded=0;orthogonalLoop=1;jettySize=auto;html=1;entryX=0.5;entryY=0;entryDx=0;entryDy=0;" edge="1" parent="1" source="7y-xZiBahoW6S9qinBv4-34" target="7y-xZiBahoW6S9qinBv4-36">
          <mxGeometry relative="1" as="geometry" />
        </mxCell>
        <mxCell id="7y-xZiBahoW6S9qinBv4-34" value="添加user2，角色为DBA" style="rounded=0;whiteSpace=wrap;html=1;" parent="1" vertex="1">
          <mxGeometry x="333" y="465" width="140" height="40" as="geometry" />
        </mxCell>
        <mxCell id="mYt-dQ_EKpgAcm44ap4p-31" style="edgeStyle=orthogonalEdgeStyle;rounded=0;orthogonalLoop=1;jettySize=auto;html=1;" edge="1" parent="1" source="7y-xZiBahoW6S9qinBv4-36" target="7y-xZiBahoW6S9qinBv4-30">
          <mxGeometry relative="1" as="geometry" />
        </mxCell>
        <mxCell id="7y-xZiBahoW6S9qinBv4-36" value="添加group1，角色为DEV" style="rounded=0;whiteSpace=wrap;html=1;" parent="1" vertex="1">
          <mxGeometry x="333" y="536" width="140" height="40" as="geometry" />
        </mxCell>
        <mxCell id="7y-xZiBahoW6S9qinBv4-47" style="edgeStyle=orthogonalEdgeStyle;rounded=0;orthogonalLoop=1;jettySize=auto;html=1;" parent="1" source="7y-xZiBahoW6S9qinBv4-45" target="7y-xZiBahoW6S9qinBv4-46" edge="1">
          <mxGeometry relative="1" as="geometry" />
        </mxCell>
        <mxCell id="7y-xZiBahoW6S9qinBv4-45" value="使用user1(DEV)&lt;br&gt;登录SQLE" style="rounded=0;whiteSpace=wrap;html=1;" parent="1" vertex="1">
          <mxGeometry x="243" y="1159" width="140" height="40" as="geometry" />
        </mxCell>
        <mxCell id="7y-xZiBahoW6S9qinBv4-49" style="edgeStyle=orthogonalEdgeStyle;rounded=0;orthogonalLoop=1;jettySize=auto;html=1;" parent="1" source="7y-xZiBahoW6S9qinBv4-46" target="7y-xZiBahoW6S9qinBv4-48" edge="1">
          <mxGeometry relative="1" as="geometry" />
        </mxCell>
        <mxCell id="7y-xZiBahoW6S9qinBv4-46" value="进入proj1工单界面" style="rounded=0;whiteSpace=wrap;html=1;" parent="1" vertex="1">
          <mxGeometry x="243" y="1236" width="140" height="40" as="geometry" />
        </mxCell>
        <mxCell id="mYt-dQ_EKpgAcm44ap4p-2" style="edgeStyle=orthogonalEdgeStyle;rounded=0;orthogonalLoop=1;jettySize=auto;html=1;entryX=0.5;entryY=0;entryDx=0;entryDy=0;" edge="1" parent="1" source="7y-xZiBahoW6S9qinBv4-48" target="mYt-dQ_EKpgAcm44ap4p-1">
          <mxGeometry relative="1" as="geometry" />
        </mxCell>
        <mxCell id="7y-xZiBahoW6S9qinBv4-48" value="创建工单，选择绑定了流程模板的数据源" style="rounded=0;whiteSpace=wrap;html=1;" parent="1" vertex="1">
          <mxGeometry x="243" y="1307" width="140" height="41" as="geometry" />
        </mxCell>
        <mxCell id="mYt-dQ_EKpgAcm44ap4p-6" style="edgeStyle=orthogonalEdgeStyle;rounded=0;orthogonalLoop=1;jettySize=auto;html=1;entryX=0.5;entryY=0;entryDx=0;entryDy=0;" edge="1" parent="1" source="mYt-dQ_EKpgAcm44ap4p-1" target="mYt-dQ_EKpgAcm44ap4p-5">
          <mxGeometry relative="1" as="geometry" />
        </mxCell>
        <mxCell id="mYt-dQ_EKpgAcm44ap4p-1" value="输入SQL语句" style="rounded=0;whiteSpace=wrap;html=1;" vertex="1" parent="1">
          <mxGeometry x="243" y="1383" width="140" height="40" as="geometry" />
        </mxCell>
        <mxCell id="mYt-dQ_EKpgAcm44ap4p-3" value="成功创建工单" style="rounded=0;whiteSpace=wrap;html=1;" vertex="1" parent="1">
          <mxGeometry x="243" y="1646" width="140" height="40" as="geometry" />
        </mxCell>
        <mxCell id="mYt-dQ_EKpgAcm44ap4p-7" value="是" style="edgeStyle=orthogonalEdgeStyle;rounded=0;orthogonalLoop=1;jettySize=auto;html=1;entryX=0.5;entryY=0;entryDx=0;entryDy=0;" edge="1" parent="1" source="mYt-dQ_EKpgAcm44ap4p-5" target="mYt-dQ_EKpgAcm44ap4p-3">
          <mxGeometry relative="1" as="geometry" />
        </mxCell>
        <mxCell id="mYt-dQ_EKpgAcm44ap4p-9" value="否" style="edgeStyle=orthogonalEdgeStyle;rounded=0;orthogonalLoop=1;jettySize=auto;html=1;entryX=0;entryY=0.5;entryDx=0;entryDy=0;" edge="1" parent="1" source="mYt-dQ_EKpgAcm44ap4p-5" target="mYt-dQ_EKpgAcm44ap4p-8">
          <mxGeometry relative="1" as="geometry" />
        </mxCell>
        <mxCell id="mYt-dQ_EKpgAcm44ap4p-5" value="SQL是否在白名单中" style="rhombus;whiteSpace=wrap;html=1;" vertex="1" parent="1">
          <mxGeometry x="244" y="1454" width="138" height="59" as="geometry" />
        </mxCell>
        <mxCell id="mYt-dQ_EKpgAcm44ap4p-11" style="edgeStyle=orthogonalEdgeStyle;rounded=0;orthogonalLoop=1;jettySize=auto;html=1;" edge="1" parent="1" source="mYt-dQ_EKpgAcm44ap4p-8" target="mYt-dQ_EKpgAcm44ap4p-10">
          <mxGeometry relative="1" as="geometry" />
        </mxCell>
        <mxCell id="mYt-dQ_EKpgAcm44ap4p-8" value="自动审核" style="rounded=0;whiteSpace=wrap;html=1;" vertex="1" parent="1">
          <mxGeometry x="436" y="1463.5" width="140" height="40" as="geometry" />
        </mxCell>
        <mxCell id="mYt-dQ_EKpgAcm44ap4p-12" style="edgeStyle=orthogonalEdgeStyle;rounded=0;orthogonalLoop=1;jettySize=auto;html=1;entryX=1;entryY=0.5;entryDx=0;entryDy=0;exitX=0.5;exitY=1;exitDx=0;exitDy=0;" edge="1" parent="1" source="mYt-dQ_EKpgAcm44ap4p-10" target="mYt-dQ_EKpgAcm44ap4p-3">
          <mxGeometry relative="1" as="geometry" />
        </mxCell>
        <mxCell id="mYt-dQ_EKpgAcm44ap4p-13" value="是" style="edgeLabel;html=1;align=center;verticalAlign=middle;resizable=0;points=[];" vertex="1" connectable="0" parent="mYt-dQ_EKpgAcm44ap4p-12">
          <mxGeometry x="-0.1815" y="-2" relative="1" as="geometry">
            <mxPoint x="-40" as="offset" />
          </mxGeometry>
        </mxCell>
        <mxCell id="mYt-dQ_EKpgAcm44ap4p-14" style="edgeStyle=orthogonalEdgeStyle;rounded=0;orthogonalLoop=1;jettySize=auto;html=1;entryX=1;entryY=0.5;entryDx=0;entryDy=0;" edge="1" parent="1" source="mYt-dQ_EKpgAcm44ap4p-10" target="mYt-dQ_EKpgAcm44ap4p-1">
          <mxGeometry relative="1" as="geometry">
            <Array as="points">
              <mxPoint x="645" y="1569" />
              <mxPoint x="645" y="1403" />
            </Array>
          </mxGeometry>
        </mxCell>
        <mxCell id="mYt-dQ_EKpgAcm44ap4p-15" value="否" style="edgeLabel;html=1;align=center;verticalAlign=middle;resizable=0;points=[];" vertex="1" connectable="0" parent="mYt-dQ_EKpgAcm44ap4p-14">
          <mxGeometry x="-0.2965" y="2" relative="1" as="geometry">
            <mxPoint as="offset" />
          </mxGeometry>
        </mxCell>
        <mxCell id="mYt-dQ_EKpgAcm44ap4p-10" value="是否审核通过" style="rhombus;whiteSpace=wrap;html=1;" vertex="1" parent="1">
          <mxGeometry x="437" y="1539" width="138" height="59" as="geometry" />
        </mxCell>
        <mxCell id="mYt-dQ_EKpgAcm44ap4p-29" value="添加项目成员" style="text;html=1;align=center;verticalAlign=middle;resizable=0;points=[];autosize=1;strokeColor=none;fillColor=none;" vertex="1" parent="1">
          <mxGeometry x="517" y="445" width="90" height="26" as="geometry" />
        </mxCell>
        <mxCell id="mYt-dQ_EKpgAcm44ap4p-35" style="edgeStyle=orthogonalEdgeStyle;rounded=0;orthogonalLoop=1;jettySize=auto;html=1;" edge="1" parent="1" source="mYt-dQ_EKpgAcm44ap4p-33" target="mYt-dQ_EKpgAcm44ap4p-34">
          <mxGeometry relative="1" as="geometry" />
        </mxCell>
        <mxCell id="mYt-dQ_EKpgAcm44ap4p-33" value="使用user2(DBA)&lt;br&gt;登录SQLE" style="rounded=0;whiteSpace=wrap;html=1;" vertex="1" parent="1">
          <mxGeometry x="243" y="1776" width="140" height="40" as="geometry" />
        </mxCell>
        <mxCell id="mYt-dQ_EKpgAcm44ap4p-37" style="edgeStyle=orthogonalEdgeStyle;rounded=0;orthogonalLoop=1;jettySize=auto;html=1;entryX=0.5;entryY=0;entryDx=0;entryDy=0;" edge="1" parent="1" source="mYt-dQ_EKpgAcm44ap4p-34" target="mYt-dQ_EKpgAcm44ap4p-36">
          <mxGeometry relative="1" as="geometry" />
        </mxCell>
        <mxCell id="mYt-dQ_EKpgAcm44ap4p-34" value="进入proj1工单列表" style="rounded=0;whiteSpace=wrap;html=1;" vertex="1" parent="1">
          <mxGeometry x="243" y="1847" width="140" height="40" as="geometry" />
        </mxCell>
        <mxCell id="mYt-dQ_EKpgAcm44ap4p-39" style="edgeStyle=orthogonalEdgeStyle;rounded=0;orthogonalLoop=1;jettySize=auto;html=1;" edge="1" parent="1" source="mYt-dQ_EKpgAcm44ap4p-36" target="mYt-dQ_EKpgAcm44ap4p-38">
          <mxGeometry relative="1" as="geometry" />
        </mxCell>
        <mxCell id="mYt-dQ_EKpgAcm44ap4p-36" value="看到等待自己审核的工单" style="rounded=0;whiteSpace=wrap;html=1;" vertex="1" parent="1">
          <mxGeometry x="243" y="1918" width="140" height="40" as="geometry" />
        </mxCell>
        <mxCell id="mYt-dQ_EKpgAcm44ap4p-38" value="审核通过或驳回" style="rounded=0;whiteSpace=wrap;html=1;" vertex="1" parent="1">
          <mxGeometry x="243" y="1989" width="140" height="40" as="geometry" />
        </mxCell>
        <mxCell id="mYt-dQ_EKpgAcm44ap4p-40" style="edgeStyle=orthogonalEdgeStyle;rounded=0;orthogonalLoop=1;jettySize=auto;html=1;" edge="1" parent="1" source="mYt-dQ_EKpgAcm44ap4p-41" target="mYt-dQ_EKpgAcm44ap4p-43">
          <mxGeometry relative="1" as="geometry" />
        </mxCell>
        <mxCell id="mYt-dQ_EKpgAcm44ap4p-41" value="使用user1(DEV)&lt;br&gt;登录SQLE" style="rounded=0;whiteSpace=wrap;html=1;" vertex="1" parent="1">
          <mxGeometry x="159" y="2252" width="140" height="40" as="geometry" />
        </mxCell>
        <mxCell id="mYt-dQ_EKpgAcm44ap4p-42" style="edgeStyle=orthogonalEdgeStyle;rounded=0;orthogonalLoop=1;jettySize=auto;html=1;" edge="1" parent="1" source="mYt-dQ_EKpgAcm44ap4p-43" target="mYt-dQ_EKpgAcm44ap4p-45">
          <mxGeometry relative="1" as="geometry" />
        </mxCell>
        <mxCell id="mYt-dQ_EKpgAcm44ap4p-43" value="进入proj1智能扫描界面" style="rounded=0;whiteSpace=wrap;html=1;" vertex="1" parent="1">
          <mxGeometry x="159" y="2329" width="140" height="40" as="geometry" />
        </mxCell>
        <mxCell id="mYt-dQ_EKpgAcm44ap4p-44" style="edgeStyle=orthogonalEdgeStyle;rounded=0;orthogonalLoop=1;jettySize=auto;html=1;entryX=0.5;entryY=0;entryDx=0;entryDy=0;" edge="1" parent="1" source="mYt-dQ_EKpgAcm44ap4p-45" target="mYt-dQ_EKpgAcm44ap4p-47">
          <mxGeometry relative="1" as="geometry" />
        </mxCell>
        <mxCell id="mYt-dQ_EKpgAcm44ap4p-45" value="创建扫描任务，选择有权限的数据源" style="rounded=0;whiteSpace=wrap;html=1;" vertex="1" parent="1">
          <mxGeometry x="159" y="2400" width="140" height="41" as="geometry" />
        </mxCell>
        <mxCell id="mYt-dQ_EKpgAcm44ap4p-46" style="edgeStyle=orthogonalEdgeStyle;rounded=0;orthogonalLoop=1;jettySize=auto;html=1;entryX=0.5;entryY=0;entryDx=0;entryDy=0;" edge="1" parent="1" source="mYt-dQ_EKpgAcm44ap4p-47">
          <mxGeometry relative="1" as="geometry">
            <mxPoint x="229" y="2547" as="targetPoint" />
          </mxGeometry>
        </mxCell>
        <mxCell id="mYt-dQ_EKpgAcm44ap4p-47" value="选择任务类型" style="rounded=0;whiteSpace=wrap;html=1;" vertex="1" parent="1">
          <mxGeometry x="159" y="2476" width="140" height="40" as="geometry" />
        </mxCell>
        <mxCell id="mYt-dQ_EKpgAcm44ap4p-48" value="创建扫描任务" style="rounded=0;whiteSpace=wrap;html=1;" vertex="1" parent="1">
          <mxGeometry x="159" y="2547" width="140" height="40" as="geometry" />
        </mxCell>
        <mxCell id="mYt-dQ_EKpgAcm44ap4p-64" value="用户" style="ellipse;whiteSpace=wrap;html=1;strokeColor=#1A1A1A;fillColor=none;" vertex="1" parent="1">
          <mxGeometry x="281" y="-956" width="81" height="36" as="geometry" />
        </mxCell>
        <mxCell id="mYt-dQ_EKpgAcm44ap4p-65" value="用户组" style="ellipse;whiteSpace=wrap;html=1;strokeColor=#1A1A1A;fillColor=none;" vertex="1" parent="1">
          <mxGeometry x="281" y="-1017" width="81" height="36" as="geometry" />
        </mxCell>
        <mxCell id="mYt-dQ_EKpgAcm44ap4p-68" value="工单" style="ellipse;whiteSpace=wrap;html=1;strokeColor=#1A1A1A;fillColor=none;" vertex="1" parent="1">
          <mxGeometry x="267" y="-747.5" width="81" height="36" as="geometry" />
        </mxCell>
        <mxCell id="mYt-dQ_EKpgAcm44ap4p-69" value="扫描任务" style="ellipse;whiteSpace=wrap;html=1;strokeColor=#1A1A1A;fillColor=none;" vertex="1" parent="1">
          <mxGeometry x="267.5" y="-638.5" width="81" height="36" as="geometry" />
        </mxCell>
        <mxCell id="mYt-dQ_EKpgAcm44ap4p-72" value="流程模板" style="ellipse;whiteSpace=wrap;html=1;strokeColor=#1A1A1A;fillColor=none;" vertex="1" parent="1">
          <mxGeometry x="758.5" y="-743" width="81" height="36" as="geometry" />
        </mxCell>
        <mxCell id="mYt-dQ_EKpgAcm44ap4p-84" value="（只能是自己有权限的数据源）" style="text;html=1;strokeColor=none;fillColor=none;align=center;verticalAlign=middle;whiteSpace=wrap;rounded=0;" vertex="1" parent="1">
          <mxGeometry x="386" y="1311" width="100" height="30" as="geometry" />
        </mxCell>
        <mxCell id="mYt-dQ_EKpgAcm44ap4p-87" value="项目" style="ellipse;whiteSpace=wrap;html=1;strokeColor=#1A1A1A;fillColor=none;" vertex="1" parent="1">
          <mxGeometry x="8" y="-989" width="81" height="36" as="geometry" />
        </mxCell>
        <mxCell id="mYt-dQ_EKpgAcm44ap4p-88" value="拥有" style="rhombus;whiteSpace=wrap;html=1;strokeColor=#1A1A1A;fillColor=none;" vertex="1" parent="1">
          <mxGeometry x="147" y="-993.5" width="69" height="45" as="geometry" />
        </mxCell>
        <mxCell id="mYt-dQ_EKpgAcm44ap4p-91" value="" style="endArrow=none;html=1;rounded=0;exitX=1;exitY=0.5;exitDx=0;exitDy=0;entryX=0;entryY=0.5;entryDx=0;entryDy=0;" edge="1" parent="1" source="mYt-dQ_EKpgAcm44ap4p-88" target="mYt-dQ_EKpgAcm44ap4p-65">
          <mxGeometry width="50" height="50" relative="1" as="geometry">
            <mxPoint x="218" y="-814" as="sourcePoint" />
            <mxPoint x="271" y="-970.75" as="targetPoint" />
          </mxGeometry>
        </mxCell>
        <mxCell id="mYt-dQ_EKpgAcm44ap4p-95" value="N" style="edgeLabel;html=1;align=center;verticalAlign=middle;resizable=0;points=[];" vertex="1" connectable="0" parent="mYt-dQ_EKpgAcm44ap4p-91">
          <mxGeometry x="-0.0178" y="-2" relative="1" as="geometry">
            <mxPoint as="offset" />
          </mxGeometry>
        </mxCell>
        <mxCell id="mYt-dQ_EKpgAcm44ap4p-92" value="" style="endArrow=none;html=1;rounded=0;exitX=1;exitY=0.5;exitDx=0;exitDy=0;entryX=0;entryY=0.5;entryDx=0;entryDy=0;" edge="1" parent="1" source="mYt-dQ_EKpgAcm44ap4p-87" target="mYt-dQ_EKpgAcm44ap4p-88">
          <mxGeometry width="50" height="50" relative="1" as="geometry">
            <mxPoint x="124" y="-890" as="sourcePoint" />
            <mxPoint x="174" y="-940" as="targetPoint" />
          </mxGeometry>
        </mxCell>
        <mxCell id="mYt-dQ_EKpgAcm44ap4p-93" value="N" style="edgeLabel;html=1;align=center;verticalAlign=middle;resizable=0;points=[];" vertex="1" connectable="0" parent="mYt-dQ_EKpgAcm44ap4p-92">
          <mxGeometry y="2" relative="1" as="geometry">
            <mxPoint y="1" as="offset" />
          </mxGeometry>
        </mxCell>
        <mxCell id="mYt-dQ_EKpgAcm44ap4p-96" value="N" style="endArrow=none;html=1;rounded=0;exitX=1;exitY=0.5;exitDx=0;exitDy=0;entryX=0;entryY=0.5;entryDx=0;entryDy=0;" edge="1" parent="1" source="mYt-dQ_EKpgAcm44ap4p-88" target="mYt-dQ_EKpgAcm44ap4p-64">
          <mxGeometry width="50" height="50" relative="1" as="geometry">
            <mxPoint x="226" y="-904" as="sourcePoint" />
            <mxPoint x="276" y="-954" as="targetPoint" />
          </mxGeometry>
        </mxCell>
        <mxCell id="mYt-dQ_EKpgAcm44ap4p-97" value="项目" style="ellipse;whiteSpace=wrap;html=1;strokeColor=#1A1A1A;fillColor=none;" vertex="1" parent="1">
          <mxGeometry x="2" y="-699" width="81" height="36" as="geometry" />
        </mxCell>
        <mxCell id="mYt-dQ_EKpgAcm44ap4p-98" value="拥有" style="rhombus;whiteSpace=wrap;html=1;strokeColor=#1A1A1A;fillColor=none;" vertex="1" parent="1">
          <mxGeometry x="149" y="-752" width="69" height="45" as="geometry" />
        </mxCell>
        <mxCell id="mYt-dQ_EKpgAcm44ap4p-99" value="" style="endArrow=none;html=1;rounded=0;exitX=1;exitY=0.5;exitDx=0;exitDy=0;entryX=0;entryY=0.5;entryDx=0;entryDy=0;" edge="1" parent="1" source="mYt-dQ_EKpgAcm44ap4p-97" target="mYt-dQ_EKpgAcm44ap4p-98">
          <mxGeometry width="50" height="50" relative="1" as="geometry">
            <mxPoint x="126" y="-648.5" as="sourcePoint" />
            <mxPoint x="176" y="-698.5" as="targetPoint" />
          </mxGeometry>
        </mxCell>
        <mxCell id="mYt-dQ_EKpgAcm44ap4p-100" value="1" style="edgeLabel;html=1;align=center;verticalAlign=middle;resizable=0;points=[];" vertex="1" connectable="0" parent="mYt-dQ_EKpgAcm44ap4p-99">
          <mxGeometry y="2" relative="1" as="geometry">
            <mxPoint y="1" as="offset" />
          </mxGeometry>
        </mxCell>
        <mxCell id="mYt-dQ_EKpgAcm44ap4p-101" value="N" style="endArrow=none;html=1;rounded=0;exitX=1;exitY=0.5;exitDx=0;exitDy=0;entryX=0;entryY=0.5;entryDx=0;entryDy=0;" edge="1" parent="1" source="mYt-dQ_EKpgAcm44ap4p-98" target="mYt-dQ_EKpgAcm44ap4p-68">
          <mxGeometry width="50" height="50" relative="1" as="geometry">
            <mxPoint x="228" y="-806" as="sourcePoint" />
            <mxPoint x="293.5" y="-787" as="targetPoint" />
          </mxGeometry>
        </mxCell>
        <mxCell id="mYt-dQ_EKpgAcm44ap4p-103" value="拥有" style="rhombus;whiteSpace=wrap;html=1;strokeColor=#1A1A1A;fillColor=none;" vertex="1" parent="1">
          <mxGeometry x="149" y="-643" width="69" height="45" as="geometry" />
        </mxCell>
        <mxCell id="mYt-dQ_EKpgAcm44ap4p-106" value="N" style="endArrow=none;html=1;rounded=0;exitX=1;exitY=0.5;exitDx=0;exitDy=0;entryX=0;entryY=0.5;entryDx=0;entryDy=0;" edge="1" parent="1" source="mYt-dQ_EKpgAcm44ap4p-103" target="mYt-dQ_EKpgAcm44ap4p-69">
          <mxGeometry width="50" height="50" relative="1" as="geometry">
            <mxPoint x="228" y="-697" as="sourcePoint" />
            <mxPoint x="258" y="-620" as="targetPoint" />
          </mxGeometry>
        </mxCell>
        <mxCell id="mYt-dQ_EKpgAcm44ap4p-117" value="审核" style="rhombus;whiteSpace=wrap;html=1;strokeColor=#1A1A1A;fillColor=none;" vertex="1" parent="1">
          <mxGeometry x="404.5" y="-752" width="69" height="45" as="geometry" />
        </mxCell>
        <mxCell id="mYt-dQ_EKpgAcm44ap4p-118" value="数据源" style="ellipse;whiteSpace=wrap;html=1;strokeColor=#1A1A1A;fillColor=none;" vertex="1" parent="1">
          <mxGeometry x="538.75" y="-773.5" width="81" height="36" as="geometry" />
        </mxCell>
        <mxCell id="mYt-dQ_EKpgAcm44ap4p-119" value="" style="endArrow=none;html=1;rounded=0;entryX=0;entryY=0.5;entryDx=0;entryDy=0;exitX=1;exitY=0.5;exitDx=0;exitDy=0;" edge="1" parent="1" source="mYt-dQ_EKpgAcm44ap4p-68">
          <mxGeometry width="50" height="50" relative="1" as="geometry">
            <mxPoint x="359" y="-730" as="sourcePoint" />
            <mxPoint x="404.5" y="-730" as="targetPoint" />
          </mxGeometry>
        </mxCell>
        <mxCell id="mYt-dQ_EKpgAcm44ap4p-120" value="1" style="edgeLabel;html=1;align=center;verticalAlign=middle;resizable=0;points=[];" vertex="1" connectable="0" parent="mYt-dQ_EKpgAcm44ap4p-119">
          <mxGeometry y="2" relative="1" as="geometry">
            <mxPoint y="1" as="offset" />
          </mxGeometry>
        </mxCell>
        <mxCell id="mYt-dQ_EKpgAcm44ap4p-121" value="N" style="endArrow=none;html=1;rounded=0;exitX=1;exitY=0.5;exitDx=0;exitDy=0;entryX=0;entryY=0.5;entryDx=0;entryDy=0;" edge="1" parent="1" source="mYt-dQ_EKpgAcm44ap4p-117">
          <mxGeometry width="50" height="50" relative="1" as="geometry">
            <mxPoint x="472.75" y="-756" as="sourcePoint" />
            <mxPoint x="538.25" y="-756" as="targetPoint" />
          </mxGeometry>
        </mxCell>
        <mxCell id="mYt-dQ_EKpgAcm44ap4p-122" value="绑定" style="rhombus;whiteSpace=wrap;html=1;strokeColor=#1A1A1A;fillColor=none;" vertex="1" parent="1">
          <mxGeometry x="656.5" y="-778" width="69" height="45" as="geometry" />
        </mxCell>
        <mxCell id="mYt-dQ_EKpgAcm44ap4p-123" value="规则模板" style="ellipse;whiteSpace=wrap;html=1;strokeColor=#1A1A1A;fillColor=none;" vertex="1" parent="1">
          <mxGeometry x="758.5" y="-799" width="81" height="36" as="geometry" />
        </mxCell>
        <mxCell id="mYt-dQ_EKpgAcm44ap4p-124" value="" style="endArrow=none;html=1;rounded=0;exitX=1;exitY=0.5;exitDx=0;exitDy=0;entryX=0;entryY=0.5;entryDx=0;entryDy=0;" edge="1" parent="1" source="mYt-dQ_EKpgAcm44ap4p-118" target="mYt-dQ_EKpgAcm44ap4p-122">
          <mxGeometry width="50" height="50" relative="1" as="geometry">
            <mxPoint x="621.5" y="-746" as="sourcePoint" />
            <mxPoint x="671.5" y="-796" as="targetPoint" />
          </mxGeometry>
        </mxCell>
        <mxCell id="mYt-dQ_EKpgAcm44ap4p-126" value="" style="endArrow=none;html=1;rounded=0;exitX=0;exitY=0.5;exitDx=0;exitDy=0;entryX=1;entryY=0.5;entryDx=0;entryDy=0;" edge="1" parent="1" source="mYt-dQ_EKpgAcm44ap4p-123" target="mYt-dQ_EKpgAcm44ap4p-122">
          <mxGeometry width="50" height="50" relative="1" as="geometry">
            <mxPoint x="629.75" y="-745.5" as="sourcePoint" />
            <mxPoint x="666.5" y="-745.5" as="targetPoint" />
          </mxGeometry>
        </mxCell>
        <mxCell id="mYt-dQ_EKpgAcm44ap4p-127" value="" style="endArrow=none;html=1;rounded=0;exitX=1;exitY=0.5;exitDx=0;exitDy=0;entryX=0;entryY=0.5;entryDx=0;entryDy=0;" edge="1" parent="1" source="mYt-dQ_EKpgAcm44ap4p-122" target="mYt-dQ_EKpgAcm44ap4p-72">
          <mxGeometry width="50" height="50" relative="1" as="geometry">
            <mxPoint x="639.75" y="-735.5" as="sourcePoint" />
            <mxPoint x="676.5" y="-735.5" as="targetPoint" />
          </mxGeometry>
        </mxCell>
        <mxCell id="mYt-dQ_EKpgAcm44ap4p-128" value="审核" style="rhombus;whiteSpace=wrap;html=1;strokeColor=#1A1A1A;fillColor=none;" vertex="1" parent="1">
          <mxGeometry x="402.75" y="-643" width="69" height="45" as="geometry" />
        </mxCell>
        <mxCell id="mYt-dQ_EKpgAcm44ap4p-129" value="数据源" style="ellipse;whiteSpace=wrap;html=1;strokeColor=#1A1A1A;fillColor=none;" vertex="1" parent="1">
          <mxGeometry x="537" y="-660.5" width="81" height="36" as="geometry" />
        </mxCell>
        <mxCell id="mYt-dQ_EKpgAcm44ap4p-130" value="" style="endArrow=none;html=1;rounded=0;exitX=1;exitY=0.5;exitDx=0;exitDy=0;entryX=0;entryY=0.5;entryDx=0;entryDy=0;" edge="1" parent="1" source="mYt-dQ_EKpgAcm44ap4p-69" target="mYt-dQ_EKpgAcm44ap4p-128">
          <mxGeometry width="50" height="50" relative="1" as="geometry">
            <mxPoint x="628" y="-672.5" as="sourcePoint" />
            <mxPoint x="664.75" y="-672.5" as="targetPoint" />
          </mxGeometry>
        </mxCell>
        <mxCell id="mYt-dQ_EKpgAcm44ap4p-131" value="" style="endArrow=none;html=1;rounded=0;exitX=0;exitY=0.5;exitDx=0;exitDy=0;entryX=1;entryY=0.5;entryDx=0;entryDy=0;" edge="1" parent="1" source="mYt-dQ_EKpgAcm44ap4p-129" target="mYt-dQ_EKpgAcm44ap4p-128">
          <mxGeometry width="50" height="50" relative="1" as="geometry">
            <mxPoint x="358.5" y="-632.5" as="sourcePoint" />
            <mxPoint x="412.75" y="-632.5" as="targetPoint" />
          </mxGeometry>
        </mxCell>
        <mxCell id="mYt-dQ_EKpgAcm44ap4p-140" value="白名单" style="ellipse;whiteSpace=wrap;html=1;strokeColor=#1A1A1A;fillColor=none;" vertex="1" parent="1">
          <mxGeometry x="537" y="-604" width="81" height="36" as="geometry" />
        </mxCell>
        <mxCell id="mYt-dQ_EKpgAcm44ap4p-141" value="" style="endArrow=none;html=1;rounded=0;exitX=0;exitY=0.5;exitDx=0;exitDy=0;entryX=1;entryY=0.5;entryDx=0;entryDy=0;" edge="1" parent="1" source="mYt-dQ_EKpgAcm44ap4p-140" target="mYt-dQ_EKpgAcm44ap4p-128">
          <mxGeometry width="50" height="50" relative="1" as="geometry">
            <mxPoint x="547" y="-632.5" as="sourcePoint" />
            <mxPoint x="481.75" y="-632.5" as="targetPoint" />
          </mxGeometry>
        </mxCell>
        <mxCell id="mYt-dQ_EKpgAcm44ap4p-142" value="白名单" style="ellipse;whiteSpace=wrap;html=1;strokeColor=#1A1A1A;fillColor=none;" vertex="1" parent="1">
          <mxGeometry x="538.75" y="-721" width="81" height="36" as="geometry" />
        </mxCell>
        <mxCell id="mYt-dQ_EKpgAcm44ap4p-143" value="" style="endArrow=none;html=1;rounded=0;exitX=0;exitY=0.5;exitDx=0;exitDy=0;entryX=1;entryY=0.5;entryDx=0;entryDy=0;" edge="1" parent="1" source="mYt-dQ_EKpgAcm44ap4p-142" target="mYt-dQ_EKpgAcm44ap4p-117">
          <mxGeometry width="50" height="50" relative="1" as="geometry">
            <mxPoint x="547" y="-576" as="sourcePoint" />
            <mxPoint x="481.75" y="-632.5" as="targetPoint" />
          </mxGeometry>
        </mxCell>
        <mxCell id="mYt-dQ_EKpgAcm44ap4p-144" value="" style="endArrow=none;html=1;rounded=0;exitX=1;exitY=0.5;exitDx=0;exitDy=0;entryX=0;entryY=0.5;entryDx=0;entryDy=0;" edge="1" parent="1" source="mYt-dQ_EKpgAcm44ap4p-97" target="mYt-dQ_EKpgAcm44ap4p-103">
          <mxGeometry width="50" height="50" relative="1" as="geometry">
            <mxPoint x="101" y="-719.5" as="sourcePoint" />
            <mxPoint x="159" y="-719.5" as="targetPoint" />
          </mxGeometry>
        </mxCell>
        <mxCell id="mYt-dQ_EKpgAcm44ap4p-145" value="1" style="edgeLabel;html=1;align=center;verticalAlign=middle;resizable=0;points=[];" vertex="1" connectable="0" parent="mYt-dQ_EKpgAcm44ap4p-144">
          <mxGeometry y="2" relative="1" as="geometry">
            <mxPoint y="1" as="offset" />
          </mxGeometry>
        </mxCell>
        <mxCell id="mYt-dQ_EKpgAcm44ap4p-156" value="操作" style="rhombus;whiteSpace=wrap;html=1;strokeColor=#1A1A1A;fillColor=none;" vertex="1" parent="1">
          <mxGeometry x="403.5" y="-960.5" width="69" height="45" as="geometry" />
        </mxCell>
        <mxCell id="mYt-dQ_EKpgAcm44ap4p-157" value="数据源" style="ellipse;whiteSpace=wrap;html=1;strokeColor=#1A1A1A;fillColor=none;" vertex="1" parent="1">
          <mxGeometry x="513" y="-956" width="81" height="36" as="geometry" />
        </mxCell>
        <mxCell id="mYt-dQ_EKpgAcm44ap4p-158" value="N" style="endArrow=none;html=1;rounded=0;exitX=1;exitY=0.5;exitDx=0;exitDy=0;entryX=0;entryY=0.5;entryDx=0;entryDy=0;" edge="1" parent="1" source="mYt-dQ_EKpgAcm44ap4p-64" target="mYt-dQ_EKpgAcm44ap4p-156">
          <mxGeometry width="50" height="50" relative="1" as="geometry">
            <mxPoint x="231.5" y="-753.5" as="sourcePoint" />
            <mxPoint x="280.5" y="-753.5" as="targetPoint" />
          </mxGeometry>
        </mxCell>
        <mxCell id="mYt-dQ_EKpgAcm44ap4p-160" value="N" style="endArrow=none;html=1;rounded=0;exitX=1;exitY=0.5;exitDx=0;exitDy=0;entryX=0;entryY=0.5;entryDx=0;entryDy=0;" edge="1" parent="1" source="mYt-dQ_EKpgAcm44ap4p-156" target="mYt-dQ_EKpgAcm44ap4p-157">
          <mxGeometry width="50" height="50" relative="1" as="geometry">
            <mxPoint x="382" y="-918" as="sourcePoint" />
            <mxPoint x="423.5" y="-918" as="targetPoint" />
          </mxGeometry>
        </mxCell>
        <mxCell id="mYt-dQ_EKpgAcm44ap4p-162" style="edgeStyle=orthogonalEdgeStyle;rounded=0;orthogonalLoop=1;jettySize=auto;html=1;entryX=0.5;entryY=1;entryDx=0;entryDy=0;" edge="1" parent="1" source="mYt-dQ_EKpgAcm44ap4p-161" target="mYt-dQ_EKpgAcm44ap4p-156">
          <mxGeometry relative="1" as="geometry" />
        </mxCell>
        <mxCell id="mYt-dQ_EKpgAcm44ap4p-161" value="角色" style="ellipse;whiteSpace=wrap;html=1;strokeColor=#1A1A1A;fillColor=none;" vertex="1" parent="1">
          <mxGeometry x="397.5" y="-883" width="81" height="36" as="geometry" />
        </mxCell>
        <mxCell id="mYt-dQ_EKpgAcm44ap4p-169" value="操作" style="rhombus;whiteSpace=wrap;html=1;strokeColor=#1A1A1A;fillColor=none;" vertex="1" parent="1">
          <mxGeometry x="403.5" y="-1021.5" width="69" height="45" as="geometry" />
        </mxCell>
        <mxCell id="mYt-dQ_EKpgAcm44ap4p-170" value="数据源" style="ellipse;whiteSpace=wrap;html=1;strokeColor=#1A1A1A;fillColor=none;" vertex="1" parent="1">
          <mxGeometry x="513" y="-1017" width="81" height="36" as="geometry" />
        </mxCell>
        <mxCell id="mYt-dQ_EKpgAcm44ap4p-171" value="N" style="endArrow=none;html=1;rounded=0;exitX=1;exitY=0.5;exitDx=0;exitDy=0;entryX=0;entryY=0.5;entryDx=0;entryDy=0;" edge="1" parent="1" target="mYt-dQ_EKpgAcm44ap4p-169">
          <mxGeometry width="50" height="50" relative="1" as="geometry">
            <mxPoint x="362" y="-999" as="sourcePoint" />
            <mxPoint x="280.5" y="-814.5" as="targetPoint" />
          </mxGeometry>
        </mxCell>
        <mxCell id="mYt-dQ_EKpgAcm44ap4p-172" value="N" style="endArrow=none;html=1;rounded=0;exitX=1;exitY=0.5;exitDx=0;exitDy=0;entryX=0;entryY=0.5;entryDx=0;entryDy=0;" edge="1" parent="1" source="mYt-dQ_EKpgAcm44ap4p-169" target="mYt-dQ_EKpgAcm44ap4p-170">
          <mxGeometry width="50" height="50" relative="1" as="geometry">
            <mxPoint x="382" y="-979" as="sourcePoint" />
            <mxPoint x="423.5" y="-979" as="targetPoint" />
          </mxGeometry>
        </mxCell>
        <mxCell id="mYt-dQ_EKpgAcm44ap4p-175" style="edgeStyle=orthogonalEdgeStyle;rounded=0;orthogonalLoop=1;jettySize=auto;html=1;" edge="1" parent="1" source="mYt-dQ_EKpgAcm44ap4p-173" target="mYt-dQ_EKpgAcm44ap4p-169">
          <mxGeometry relative="1" as="geometry" />
        </mxCell>
        <mxCell id="mYt-dQ_EKpgAcm44ap4p-173" value="角色" style="ellipse;whiteSpace=wrap;html=1;strokeColor=#1A1A1A;fillColor=none;" vertex="1" parent="1">
          <mxGeometry x="397.5" y="-1084" width="81" height="36" as="geometry" />
        </mxCell>
      </root>
    </mxGraphModel>
  </diagram>
</mxfile>
